<svg id="svg" version="1.1" xmlns="http://www.w3.org/2000/svg" xmlns:xlink="http://www.w3.org/1999/xlink" width="400" height="293.5420743639922" viewBox="0, 0, 400,293.5420743639922"><g id="svgg"><path id="path0" d="M12.041 145.668 L 12.041 282.232 64.464 282.232 C 97.421 282.232,116.887 282.128,116.887 281.953 C 116.887 281.786,119.861 281.638,124.278 281.586 C 129.867 281.519,131.699 281.408,131.792 281.131 C 131.880 280.864,132.875 280.764,135.414 280.764 C 138.329 280.764,138.913 280.690,138.913 280.323 C 138.913 279.959,139.452 279.883,141.997 279.883 C 143.857 279.883,145.081 279.766,145.081 279.589 C 145.081 279.427,145.808 279.295,146.696 279.295 C 147.936 279.295,148.311 279.193,148.311 278.855 C 148.311 278.508,148.719 278.414,150.220 278.414 C 151.721 278.414,152.129 278.320,152.129 277.974 C 152.129 277.635,152.504 277.533,153.744 277.533 C 154.633 277.533,155.360 277.401,155.360 277.239 C 155.360 277.078,156.025 276.946,156.837 276.946 C 157.880 276.946,158.365 276.816,158.484 276.505 C 158.602 276.197,159.084 276.065,160.090 276.065 C 161.172 276.065,161.527 275.956,161.527 275.624 C 161.527 275.306,161.853 275.184,162.702 275.184 C 163.348 275.184,163.877 275.051,163.877 274.890 C 163.877 274.728,164.405 274.596,165.051 274.596 C 165.900 274.596,166.226 274.474,166.226 274.156 C 166.226 273.837,166.552 273.715,167.401 273.715 C 168.249 273.715,168.576 273.593,168.576 273.275 C 168.576 272.968,168.884 272.834,169.586 272.834 C 170.142 272.834,170.678 272.702,170.778 272.540 C 170.878 272.379,171.287 272.247,171.686 272.247 C 172.085 272.247,172.488 272.048,172.581 271.806 C 172.674 271.564,173.066 271.366,173.453 271.366 C 173.882 271.366,174.156 271.194,174.156 270.925 C 174.156 270.651,174.433 270.485,174.890 270.485 C 175.294 270.485,175.624 270.352,175.624 270.191 C 175.624 270.029,176.011 269.897,176.484 269.897 C 176.957 269.897,177.542 269.699,177.785 269.457 C 178.027 269.214,178.503 269.016,178.843 269.016 C 179.183 269.016,179.537 268.818,179.629 268.576 C 179.722 268.333,180.067 268.135,180.394 268.135 C 180.722 268.135,181.296 267.805,181.670 267.401 C 182.045 266.997,182.621 266.667,182.952 266.667 C 183.291 266.667,183.554 266.474,183.554 266.226 C 183.554 265.952,183.831 265.786,184.288 265.786 C 184.692 265.786,185.022 265.668,185.022 265.524 C 185.022 265.380,185.352 265.179,185.756 265.078 C 186.160 264.976,186.490 264.764,186.490 264.605 C 186.490 264.447,186.689 264.317,186.931 264.317 C 187.173 264.317,187.372 264.119,187.372 263.877 C 187.372 263.634,187.570 263.436,187.812 263.436 C 188.054 263.436,188.253 263.304,188.253 263.142 C 188.253 262.981,188.583 262.849,188.987 262.849 C 189.444 262.849,189.721 262.682,189.721 262.408 C 189.721 262.166,189.919 261.968,190.162 261.968 C 190.404 261.968,190.602 261.769,190.602 261.527 C 190.602 261.285,190.744 261.087,190.917 261.087 C 191.323 261.087,192.070 260.339,192.070 259.933 C 192.070 259.760,192.341 259.618,192.672 259.618 C 193.003 259.618,193.579 259.288,193.954 258.884 C 194.328 258.480,194.784 258.150,194.968 258.150 C 195.151 258.150,195.301 257.952,195.301 257.709 C 195.301 257.467,195.499 257.269,195.742 257.269 C 195.984 257.269,196.182 257.127,196.182 256.954 C 196.182 256.547,196.929 255.800,197.336 255.800 C 197.509 255.800,197.651 255.602,197.651 255.360 C 197.651 255.117,197.849 254.919,198.091 254.919 C 198.333 254.919,198.532 254.778,198.532 254.605 C 198.532 254.198,199.279 253.451,199.685 253.451 C 199.858 253.451,200.000 253.253,200.000 253.010 C 200.000 252.768,200.198 252.570,200.441 252.570 C 200.683 252.570,200.881 252.428,200.881 252.255 C 200.881 251.848,201.628 251.101,202.035 251.101 C 202.208 251.101,202.349 250.903,202.349 250.661 C 202.349 250.419,202.548 250.220,202.790 250.220 C 203.032 250.220,203.231 250.079,203.231 249.906 C 203.231 249.499,203.978 248.752,204.384 248.752 C 204.557 248.752,204.699 248.554,204.699 248.311 C 204.699 248.069,204.897 247.871,205.140 247.871 C 205.382 247.871,205.580 247.729,205.580 247.556 C 205.580 247.187,206.311 246.404,206.660 246.399 C 206.793 246.397,207.154 245.868,207.463 245.224 C 207.771 244.580,208.135 244.053,208.270 244.053 C 208.406 244.053,208.517 243.855,208.517 243.612 C 208.517 243.370,208.715 243.172,208.957 243.172 C 209.200 243.172,209.398 242.974,209.398 242.731 C 209.398 242.489,209.540 242.291,209.713 242.291 C 210.104 242.291,210.866 241.549,210.866 241.168 C 210.866 241.013,211.065 240.809,211.307 240.716 C 211.549 240.623,211.747 240.338,211.747 240.083 C 211.747 239.828,212.078 239.313,212.482 238.939 C 212.885 238.565,213.216 237.976,213.216 237.632 C 213.216 237.270,213.402 237.004,213.656 237.004 C 213.899 237.004,214.097 236.806,214.097 236.564 C 214.097 236.322,214.295 236.123,214.537 236.123 C 214.812 236.123,214.978 235.846,214.978 235.389 C 214.978 234.985,215.110 234.655,215.272 234.655 C 215.433 234.655,215.565 234.457,215.565 234.214 C 215.565 233.972,215.764 233.774,216.006 233.774 C 216.254 233.774,216.446 233.511,216.446 233.172 C 216.446 232.842,216.777 232.265,217.181 231.891 C 217.584 231.516,217.915 230.928,217.915 230.583 C 217.915 230.221,218.101 229.956,218.355 229.956 C 218.649 229.956,218.796 229.662,218.796 229.075 C 218.796 228.488,218.943 228.194,219.236 228.194 C 219.511 228.194,219.677 227.916,219.677 227.460 C 219.677 227.056,219.809 226.725,219.971 226.725 C 220.132 226.725,220.264 226.395,220.264 225.991 C 220.264 225.534,220.431 225.257,220.705 225.257 C 220.999 225.257,221.145 224.963,221.145 224.376 C 221.145 223.789,221.292 223.495,221.586 223.495 C 221.860 223.495,222.026 223.217,222.026 222.761 C 222.026 222.357,222.159 222.026,222.320 222.026 C 222.482 222.026,222.614 221.696,222.614 221.292 C 222.614 220.835,222.780 220.558,223.054 220.558 C 223.348 220.558,223.495 220.264,223.495 219.677 C 223.495 219.090,223.642 218.796,223.935 218.796 C 224.207 218.796,224.376 218.520,224.376 218.079 C 224.376 217.685,224.508 217.280,224.670 217.181 C 224.831 217.081,224.963 216.544,224.963 215.989 C 224.963 215.286,225.098 214.978,225.404 214.978 C 225.654 214.978,225.844 214.715,225.844 214.370 C 225.844 214.035,226.043 213.563,226.285 213.321 C 226.527 213.078,226.725 212.493,226.725 212.020 C 226.725 211.547,226.858 211.160,227.019 211.160 C 227.181 211.160,227.313 210.780,227.313 210.315 C 227.313 209.850,227.511 209.305,227.753 209.104 C 227.996 208.903,228.194 208.358,228.194 207.894 C 228.194 207.429,228.324 207.048,228.484 207.048 C 228.644 207.048,228.859 206.520,228.962 205.874 C 229.065 205.228,229.265 204.699,229.406 204.699 C 229.547 204.699,229.662 204.170,229.662 203.524 C 229.662 202.676,229.785 202.349,230.103 202.349 C 230.412 202.349,230.543 202.037,230.543 201.301 C 230.543 200.724,230.742 200.053,230.984 199.811 C 231.226 199.569,231.424 198.859,231.424 198.234 C 231.424 197.609,231.557 197.016,231.718 196.916 C 231.880 196.816,232.012 196.082,232.012 195.284 C 232.012 194.190,232.120 193.833,232.452 193.833 C 232.789 193.833,232.893 193.461,232.893 192.249 C 232.893 191.112,233.017 190.617,233.333 190.496 C 233.635 190.380,233.774 189.908,233.774 188.996 C 233.774 188.264,233.906 187.665,234.068 187.665 C 234.235 187.665,234.361 186.784,234.361 185.609 C 234.361 183.978,234.452 183.554,234.802 183.554 C 235.156 183.554,235.242 183.100,235.242 181.236 C 235.242 179.446,235.343 178.879,235.683 178.748 C 236.020 178.619,236.123 178.063,236.123 176.368 C 236.123 175.089,236.247 174.156,236.417 174.156 C 236.598 174.156,236.711 172.684,236.711 170.329 C 236.711 167.198,236.791 166.471,237.151 166.332 C 237.523 166.190,237.592 165.233,237.592 160.233 C 237.592 155.880,237.689 154.205,237.959 153.935 C 238.240 153.654,238.326 150.820,238.326 141.786 C 238.326 132.622,238.244 129.978,237.959 129.882 C 237.690 129.793,237.592 128.711,237.592 125.820 C 237.592 122.513,237.521 121.880,237.151 121.880 C 236.784 121.880,236.711 121.292,236.711 118.355 C 236.711 116.202,236.597 114.831,236.417 114.831 C 236.247 114.831,236.123 113.898,236.123 112.619 C 236.123 110.924,236.020 110.368,235.683 110.238 C 235.343 110.108,235.242 109.541,235.242 107.751 C 235.242 105.887,235.156 105.433,234.802 105.433 C 234.452 105.433,234.361 105.009,234.361 103.377 C 234.361 102.247,234.245 101.322,234.103 101.322 C 233.961 101.322,233.785 100.503,233.713 99.503 C 233.639 98.482,233.430 97.634,233.237 97.569 C 233.036 97.502,232.893 96.852,232.893 96.002 C 232.893 94.981,232.762 94.498,232.452 94.379 C 232.144 94.261,232.012 93.780,232.012 92.773 C 232.012 91.983,231.880 91.336,231.718 91.336 C 231.557 91.336,231.424 90.808,231.424 90.162 C 231.424 89.313,231.302 88.987,230.984 88.987 C 230.666 88.987,230.543 88.660,230.543 87.812 C 230.543 86.964,230.421 86.637,230.103 86.637 C 229.785 86.637,229.662 86.311,229.662 85.463 C 229.662 84.816,229.530 84.288,229.369 84.288 C 229.207 84.288,229.075 83.759,229.075 83.113 C 229.075 82.265,228.953 81.938,228.634 81.938 C 228.316 81.938,228.194 81.612,228.194 80.764 C 228.194 79.915,228.071 79.589,227.753 79.589 C 227.435 79.589,227.313 79.263,227.313 78.414 C 227.313 77.768,227.181 77.239,227.019 77.239 C 226.858 77.239,226.725 76.905,226.725 76.496 C 226.725 76.087,226.527 75.676,226.285 75.583 C 226.043 75.490,225.844 75.098,225.844 74.712 C 225.844 74.283,225.673 74.009,225.404 74.009 C 225.086 74.009,224.963 73.682,224.963 72.834 C 224.963 72.188,224.831 71.659,224.670 71.659 C 224.508 71.659,224.376 71.329,224.376 70.925 C 224.376 70.468,224.209 70.191,223.935 70.191 C 223.642 70.191,223.495 69.897,223.495 69.310 C 223.495 68.722,223.348 68.429,223.054 68.429 C 222.780 68.429,222.614 68.151,222.614 67.695 C 222.614 67.291,222.482 66.960,222.320 66.960 C 222.159 66.960,222.026 66.630,222.026 66.226 C 222.026 65.769,221.860 65.492,221.586 65.492 C 221.292 65.492,221.145 65.198,221.145 64.611 C 221.145 64.023,220.999 63.730,220.705 63.730 C 220.431 63.730,220.264 63.452,220.264 62.996 C 220.264 62.592,220.132 62.261,219.971 62.261 C 219.809 62.261,219.677 61.993,219.677 61.665 C 219.677 61.337,219.479 60.992,219.236 60.899 C 218.994 60.806,218.796 60.546,218.796 60.321 C 218.796 60.096,218.598 59.912,218.355 59.912 C 218.081 59.912,217.915 59.635,217.915 59.178 C 217.915 58.774,217.783 58.443,217.621 58.443 C 217.460 58.443,217.327 58.142,217.327 57.775 C 217.327 57.119,216.430 56.094,215.856 56.094 C 215.696 56.094,215.565 55.754,215.565 55.339 C 215.565 54.564,214.972 53.744,214.412 53.744 C 214.239 53.744,214.097 53.433,214.097 53.051 C 214.097 52.660,213.786 52.125,213.380 51.820 C 212.986 51.524,212.587 50.977,212.494 50.604 C 212.400 50.232,212.194 49.927,212.036 49.927 C 211.877 49.927,211.747 49.728,211.747 49.486 C 211.747 49.244,211.549 49.046,211.307 49.046 C 211.065 49.046,210.866 48.847,210.866 48.605 C 210.866 48.363,210.734 48.164,210.573 48.164 C 210.411 48.164,210.279 47.966,210.279 47.724 C 210.279 47.482,210.081 47.283,209.838 47.283 C 209.591 47.283,209.398 47.021,209.398 46.687 C 209.398 46.359,209.200 46.014,208.957 45.921 C 208.715 45.828,208.517 45.625,208.517 45.469 C 208.517 45.088,207.755 44.347,207.363 44.347 C 207.190 44.347,207.048 44.148,207.048 43.906 C 207.048 43.664,206.850 43.465,206.608 43.465 C 206.366 43.465,206.167 43.324,206.167 43.151 C 206.167 42.744,205.420 41.997,205.014 41.997 C 204.841 41.997,204.699 41.799,204.699 41.557 C 204.699 41.314,204.501 41.116,204.258 41.116 C 204.016 41.116,203.818 40.974,203.818 40.801 C 203.818 40.395,203.071 39.648,202.664 39.648 C 202.491 39.648,202.349 39.449,202.349 39.207 C 202.349 38.965,202.151 38.767,201.909 38.767 C 201.667 38.767,201.468 38.625,201.468 38.452 C 201.468 38.045,200.721 37.298,200.315 37.298 C 200.142 37.298,200.000 37.100,200.000 36.858 C 200.000 36.615,199.802 36.417,199.559 36.417 C 199.317 36.417,199.119 36.275,199.119 36.102 C 199.119 35.696,198.372 34.949,197.965 34.949 C 197.792 34.949,197.651 34.750,197.651 34.508 C 197.651 34.266,197.452 34.068,197.210 34.068 C 196.968 34.068,196.769 33.926,196.769 33.753 C 196.769 33.346,196.022 32.599,195.616 32.599 C 195.443 32.599,195.301 32.401,195.301 32.159 C 195.301 31.916,195.103 31.718,194.860 31.718 C 194.618 31.718,194.420 31.520,194.420 31.278 C 194.420 31.003,194.143 30.837,193.686 30.837 C 193.282 30.837,192.952 30.705,192.952 30.543 C 192.952 30.382,192.753 30.250,192.511 30.250 C 192.269 30.250,192.070 30.119,192.070 29.959 C 192.070 29.512,191.105 28.488,190.684 28.488 C 190.477 28.488,190.308 28.355,190.308 28.194 C 190.308 28.032,190.044 27.900,189.721 27.900 C 189.395 27.900,189.134 27.704,189.134 27.460 C 189.134 27.217,188.935 27.019,188.693 27.019 C 188.451 27.019,188.253 26.821,188.253 26.579 C 188.253 26.336,188.054 26.138,187.812 26.138 C 187.570 26.138,187.372 26.006,187.372 25.844 C 187.372 25.683,187.041 25.551,186.637 25.551 C 186.180 25.551,185.903 25.384,185.903 25.110 C 185.903 24.841,185.629 24.670,185.200 24.670 C 184.814 24.670,184.421 24.471,184.328 24.229 C 184.235 23.987,183.856 23.789,183.486 23.789 C 183.110 23.789,182.568 23.464,182.261 23.054 C 181.945 22.634,181.413 22.320,181.016 22.320 C 180.596 22.320,180.323 22.147,180.323 21.880 C 180.323 21.605,180.046 21.439,179.589 21.439 C 179.185 21.439,178.855 21.307,178.855 21.145 C 178.855 20.984,178.524 20.852,178.120 20.852 C 177.664 20.852,177.386 20.685,177.386 20.411 C 177.386 20.117,177.093 19.971,176.505 19.971 C 175.918 19.971,175.624 19.824,175.624 19.530 C 175.624 19.238,175.332 19.090,174.760 19.090 C 174.285 19.090,173.815 18.957,173.715 18.796 C 173.615 18.634,173.145 18.502,172.670 18.502 C 172.098 18.502,171.806 18.353,171.806 18.062 C 171.806 17.812,171.543 17.621,171.198 17.621 C 170.863 17.621,170.391 17.423,170.149 17.181 C 169.907 16.938,169.321 16.740,168.848 16.740 C 168.375 16.740,167.988 16.608,167.988 16.446 C 167.988 16.285,167.606 16.153,167.139 16.153 C 166.654 16.153,166.216 15.963,166.120 15.712 C 166.005 15.412,165.536 15.272,164.652 15.272 C 163.767 15.272,163.298 15.131,163.183 14.831 C 163.078 14.557,162.630 14.391,161.994 14.391 C 161.433 14.391,160.893 14.258,160.793 14.097 C 160.693 13.935,159.958 13.803,159.160 13.803 C 158.066 13.803,157.709 13.695,157.709 13.363 C 157.709 13.053,157.397 12.922,156.660 12.922 C 156.083 12.922,155.413 12.724,155.171 12.482 C 154.864 12.175,154.113 12.041,152.696 12.041 C 151.535 12.041,150.661 11.915,150.661 11.747 C 150.661 11.582,149.826 11.454,148.743 11.454 C 147.308 11.454,146.782 11.343,146.655 11.013 C 146.521 10.663,145.892 10.573,143.572 10.573 C 141.252 10.573,140.623 10.483,140.488 10.132 C 140.349 9.769,139.578 9.692,136.092 9.692 C 133.470 9.692,131.865 9.580,131.865 9.398 C 131.865 9.203,111.698 9.104,71.953 9.104 L 12.041 9.104 12.041 145.668 M106.167 42.291 C 106.282 42.477,109.880 42.584,115.992 42.584 C 124.292 42.584,125.658 42.646,125.804 43.025 C 125.943 43.387,126.698 43.465,130.062 43.465 C 133.426 43.465,134.182 43.544,134.321 43.906 C 134.454 44.253,135.055 44.347,137.142 44.347 C 138.714 44.347,139.794 44.466,139.794 44.640 C 139.794 44.806,140.627 44.934,141.703 44.934 C 143.204 44.934,143.612 45.028,143.612 45.374 C 143.612 45.713,143.988 45.815,145.228 45.815 C 146.468 45.815,146.843 45.917,146.843 46.256 C 146.843 46.574,147.169 46.696,148.018 46.696 C 148.664 46.696,149.192 46.828,149.192 46.990 C 149.192 47.151,149.721 47.283,150.367 47.283 C 151.216 47.283,151.542 47.406,151.542 47.724 C 151.542 47.993,151.816 48.164,152.245 48.164 C 152.631 48.164,153.024 48.363,153.116 48.605 C 153.209 48.847,153.546 49.046,153.865 49.046 C 154.183 49.046,154.526 49.178,154.626 49.339 C 154.725 49.501,155.130 49.633,155.524 49.633 C 155.965 49.633,156.241 49.802,156.241 50.073 C 156.241 50.323,156.504 50.514,156.849 50.514 C 157.184 50.514,157.656 50.712,157.898 50.954 C 158.140 51.197,158.726 51.395,159.199 51.395 C 159.672 51.395,160.059 51.527,160.059 51.689 C 160.059 51.850,160.257 51.982,160.499 51.982 C 160.742 51.982,160.940 52.181,160.940 52.423 C 160.940 52.665,161.138 52.863,161.380 52.863 C 161.623 52.863,161.821 52.993,161.821 53.152 C 161.821 53.310,162.151 53.523,162.555 53.624 C 162.959 53.725,163.289 53.926,163.289 54.070 C 163.289 54.214,163.488 54.332,163.730 54.332 C 163.972 54.332,164.170 54.530,164.170 54.772 C 164.170 55.047,164.448 55.213,164.905 55.213 C 165.361 55.213,165.639 55.379,165.639 55.653 C 165.639 55.896,165.837 56.094,166.079 56.094 C 166.322 56.094,166.520 56.226,166.520 56.388 C 166.520 56.549,166.850 56.681,167.254 56.681 C 167.658 56.681,167.988 56.824,167.988 56.998 C 167.988 57.409,169.610 59.031,170.021 59.031 C 170.195 59.031,170.338 59.184,170.338 59.372 C 170.338 59.883,172.128 61.380,172.740 61.380 C 173.034 61.380,173.275 61.579,173.275 61.821 C 173.275 62.063,173.473 62.261,173.715 62.261 C 173.957 62.261,174.156 62.460,174.156 62.702 C 174.156 62.944,174.354 63.142,174.596 63.142 C 174.846 63.142,175.037 63.406,175.037 63.752 C 175.037 64.386,176.516 66.079,177.070 66.079 C 177.244 66.079,177.386 66.278,177.386 66.520 C 177.386 66.762,177.504 66.960,177.648 66.960 C 177.792 66.960,177.993 67.291,178.094 67.695 C 178.196 68.098,178.408 68.429,178.567 68.429 C 178.725 68.429,178.855 68.627,178.855 68.869 C 178.855 69.112,179.053 69.310,179.295 69.310 C 179.537 69.310,179.736 69.508,179.736 69.750 C 179.736 69.993,179.847 70.191,179.982 70.191 C 180.118 70.191,180.481 70.718,180.790 71.362 C 181.098 72.007,181.460 72.535,181.592 72.537 C 182.029 72.543,182.673 73.369,182.673 73.923 C 182.673 74.477,183.620 75.477,184.144 75.477 C 184.304 75.477,184.439 75.775,184.444 76.138 C 184.455 76.896,185.075 77.827,185.568 77.827 C 185.752 77.827,185.903 78.161,185.903 78.570 C 185.903 78.979,186.101 79.390,186.344 79.483 C 186.586 79.576,186.784 79.968,186.784 80.354 C 186.784 80.741,186.916 81.057,187.078 81.057 C 187.239 81.057,187.372 81.326,187.372 81.654 C 187.372 81.982,187.570 82.327,187.812 82.419 C 188.054 82.512,188.253 82.909,188.253 83.301 C 188.253 83.692,188.451 84.089,188.693 84.182 C 188.935 84.275,189.134 84.490,189.134 84.661 C 189.134 85.185,190.113 87.225,190.365 87.225 C 190.495 87.225,190.602 87.621,190.602 88.106 C 190.602 88.693,190.749 88.987,191.043 88.987 C 191.361 88.987,191.483 89.313,191.483 90.162 C 191.483 90.808,191.615 91.336,191.777 91.336 C 191.938 91.336,192.070 91.717,192.070 92.181 C 192.070 92.646,192.269 93.191,192.511 93.392 C 192.753 93.593,192.952 94.072,192.952 94.456 C 192.952 94.881,193.124 95.154,193.392 95.154 C 193.730 95.154,193.833 95.529,193.833 96.769 C 193.833 97.658,193.965 98.385,194.126 98.385 C 194.288 98.385,194.420 99.046,194.420 99.853 C 194.420 100.963,194.528 101.322,194.860 101.322 C 195.199 101.322,195.301 101.697,195.301 102.937 C 195.301 104.177,195.403 104.552,195.742 104.552 C 196.088 104.552,196.182 104.960,196.182 106.461 C 196.182 107.538,196.310 108.370,196.476 108.370 C 196.643 108.370,196.769 109.244,196.769 110.405 C 196.769 111.822,196.903 112.573,197.210 112.880 C 197.505 113.176,197.651 113.911,197.651 115.113 C 197.651 116.435,197.766 116.950,198.091 117.074 C 198.454 117.214,198.532 117.981,198.532 121.446 C 198.532 124.078,198.645 125.686,198.835 125.750 C 199.257 125.890,199.256 161.628,198.834 161.769 C 198.647 161.831,198.532 163.323,198.532 165.672 C 198.532 168.782,198.451 169.506,198.091 169.644 C 197.746 169.777,197.651 170.371,197.651 172.394 C 197.651 174.416,197.555 175.010,197.210 175.143 C 196.872 175.272,196.769 175.829,196.769 177.524 C 196.769 178.803,196.646 179.736,196.476 179.736 C 196.304 179.736,196.182 180.715,196.182 182.085 C 196.182 183.978,196.096 184.435,195.742 184.435 C 195.425 184.435,195.301 184.757,195.301 185.578 C 195.301 186.323,195.148 186.780,194.860 186.890 C 194.550 187.010,194.420 187.494,194.420 188.537 C 194.420 189.350,194.288 190.015,194.126 190.015 C 193.965 190.015,193.833 190.543,193.833 191.189 C 193.833 192.038,193.710 192.364,193.392 192.364 C 193.061 192.364,192.952 192.720,192.952 193.801 C 192.952 194.808,192.820 195.289,192.511 195.407 C 192.269 195.500,192.070 195.911,192.070 196.320 C 192.070 196.729,191.938 197.063,191.777 197.063 C 191.615 197.063,191.483 197.592,191.483 198.238 C 191.483 199.086,191.361 199.413,191.043 199.413 C 190.724 199.413,190.602 199.739,190.602 200.587 C 190.602 201.436,190.480 201.762,190.162 201.762 C 189.887 201.762,189.721 202.039,189.721 202.496 C 189.721 202.900,189.589 203.231,189.427 203.231 C 189.266 203.231,189.134 203.759,189.134 204.405 C 189.134 205.254,189.011 205.580,188.693 205.580 C 188.424 205.580,188.253 205.854,188.253 206.283 C 188.253 206.669,188.054 207.062,187.812 207.155 C 187.570 207.248,187.372 207.658,187.372 208.067 C 187.372 208.476,187.239 208.811,187.078 208.811 C 186.916 208.811,186.784 209.141,186.784 209.545 C 186.784 210.002,186.618 210.279,186.344 210.279 C 186.075 210.279,185.903 210.553,185.903 210.982 C 185.903 211.368,185.705 211.761,185.463 211.854 C 185.220 211.947,185.022 212.357,185.022 212.766 C 185.022 213.175,184.890 213.510,184.728 213.510 C 184.567 213.510,184.435 213.840,184.435 214.244 C 184.435 214.701,184.268 214.978,183.994 214.978 C 183.752 214.978,183.554 215.176,183.554 215.419 C 183.554 215.661,183.355 215.859,183.113 215.859 C 182.839 215.859,182.673 216.136,182.673 216.593 C 182.673 216.997,182.540 217.327,182.379 217.327 C 182.217 217.327,182.085 217.526,182.085 217.768 C 182.085 218.010,181.887 218.209,181.645 218.209 C 181.371 218.209,181.204 218.486,181.204 218.943 C 181.204 219.400,181.038 219.677,180.764 219.677 C 180.521 219.677,180.323 219.875,180.323 220.117 C 180.323 220.360,180.191 220.558,180.029 220.558 C 179.868 220.558,179.736 220.888,179.736 221.292 C 179.736 221.749,179.569 222.026,179.295 222.026 C 179.053 222.026,178.855 222.225,178.855 222.467 C 178.855 222.709,178.713 222.907,178.540 222.907 C 178.133 222.907,177.386 223.655,177.386 224.061 C 177.386 224.234,177.188 224.376,176.946 224.376 C 176.672 224.376,176.505 224.653,176.505 225.110 C 176.505 225.567,176.339 225.844,176.065 225.844 C 175.822 225.844,175.624 226.043,175.624 226.285 C 175.624 226.527,175.492 226.725,175.330 226.725 C 175.169 226.725,175.037 226.924,175.037 227.166 C 175.037 227.408,174.894 227.606,174.720 227.606 C 174.546 227.606,174.018 227.993,173.546 228.465 C 173.074 228.937,172.687 229.466,172.687 229.640 C 172.687 229.814,172.545 229.956,172.371 229.956 C 171.986 229.956,170.338 231.566,170.338 231.942 C 170.338 232.090,169.809 232.386,169.163 232.599 C 168.517 232.812,167.988 233.164,167.988 233.380 C 167.988 233.597,167.790 233.774,167.548 233.774 C 167.305 233.774,167.107 233.972,167.107 234.214 C 167.107 234.457,166.935 234.655,166.725 234.655 C 166.051 234.655,164.762 235.377,164.760 235.756 C 164.759 235.958,164.559 236.123,164.317 236.123 C 164.075 236.123,163.877 236.322,163.877 236.564 C 163.877 236.838,163.599 237.004,163.142 237.004 C 162.739 237.004,162.408 237.137,162.408 237.298 C 162.408 237.460,162.078 237.592,161.674 237.592 C 161.217 237.592,160.940 237.758,160.940 238.032 C 160.940 238.308,160.661 238.473,160.196 238.473 C 159.787 238.473,159.377 238.671,159.284 238.913 C 159.191 239.156,158.799 239.354,158.412 239.354 C 158.026 239.354,157.709 239.486,157.709 239.648 C 157.709 239.809,157.379 239.941,156.975 239.941 C 156.518 239.941,156.241 240.108,156.241 240.382 C 156.241 240.671,155.951 240.822,155.396 240.822 C 154.931 240.822,154.386 241.021,154.185 241.263 C 153.984 241.505,153.439 241.703,152.974 241.703 C 152.510 241.703,152.129 241.836,152.129 241.997 C 152.129 242.159,151.663 242.291,151.092 242.291 C 150.441 242.291,149.992 242.455,149.886 242.731 C 149.783 242.999,149.339 243.172,148.752 243.172 C 148.165 243.172,147.721 243.344,147.618 243.612 C 147.512 243.887,147.064 244.053,146.429 244.053 C 145.868 244.053,145.327 244.185,145.228 244.347 C 145.128 244.508,144.587 244.640,144.026 244.640 C 143.391 244.640,142.943 244.806,142.837 245.081 C 142.712 245.409,142.189 245.521,140.791 245.521 C 139.318 245.521,138.913 245.616,138.913 245.962 C 138.913 246.314,138.475 246.402,136.728 246.402 C 135.526 246.402,134.461 246.535,134.361 246.696 C 134.260 246.860,132.887 246.990,131.251 246.990 C 128.919 246.990,128.288 247.079,128.153 247.430 C 128.011 247.800,127.113 247.871,122.582 247.871 C 117.977 247.871,117.181 247.936,117.181 248.311 C 117.181 248.700,113.232 248.752,83.407 248.752 L 49.633 248.752 49.633 145.374 L 49.633 41.997 77.809 41.997 C 96.277 41.997,106.048 42.098,106.167 42.291 " stroke="none" fill="#fcfcfc" fill-rule="evenodd"></path><path id="path1" d="M165.639 10.573 C 165.639 11.405,165.704 11.454,166.814 11.454 C 167.460 11.454,167.988 11.586,167.988 11.747 C 167.988 11.909,168.517 12.041,169.163 12.041 C 170.011 12.041,170.338 12.163,170.338 12.482 C 170.338 12.814,170.697 12.922,171.806 12.922 C 172.916 12.922,173.275 13.030,173.275 13.363 C 173.275 13.656,173.568 13.803,174.156 13.803 C 174.640 13.803,175.037 13.935,175.037 14.097 C 175.037 14.258,175.565 14.391,176.211 14.391 C 177.060 14.391,177.386 14.513,177.386 14.831 C 177.386 15.105,177.664 15.272,178.120 15.272 C 178.577 15.272,178.855 15.438,178.855 15.712 C 178.855 15.986,179.132 16.153,179.589 16.153 C 179.993 16.153,180.323 16.285,180.323 16.446 C 180.323 16.608,180.852 16.740,181.498 16.740 C 182.346 16.740,182.673 16.862,182.673 17.181 C 182.673 17.474,182.966 17.621,183.554 17.621 C 184.141 17.621,184.435 17.768,184.435 18.062 C 184.435 18.336,184.712 18.502,185.169 18.502 C 185.573 18.502,185.903 18.634,185.903 18.796 C 185.903 18.957,186.233 19.090,186.637 19.090 C 187.094 19.090,187.372 19.256,187.372 19.530 C 187.372 19.772,187.556 19.971,187.781 19.971 C 188.006 19.971,188.266 20.169,188.359 20.411 C 188.452 20.653,188.796 20.852,189.124 20.852 C 189.453 20.852,189.721 20.984,189.721 21.145 C 189.721 21.307,190.117 21.439,190.602 21.439 C 191.189 21.439,191.483 21.586,191.483 21.880 C 191.483 22.154,191.760 22.320,192.217 22.320 C 192.674 22.320,192.952 22.487,192.952 22.761 C 192.952 23.003,193.150 23.201,193.392 23.201 C 193.634 23.201,193.833 23.333,193.833 23.495 C 193.833 23.656,194.163 23.789,194.567 23.789 C 195.024 23.789,195.301 23.955,195.301 24.229 C 195.301 24.471,195.499 24.670,195.742 24.670 C 195.984 24.670,196.182 24.811,196.182 24.984 C 196.182 25.545,197.002 26.138,197.776 26.138 C 198.252 26.138,198.532 26.301,198.532 26.579 C 198.532 26.821,198.664 27.019,198.825 27.019 C 198.987 27.019,199.119 27.217,199.119 27.460 C 199.119 27.702,199.317 27.900,199.559 27.900 C 199.802 27.900,200.000 28.032,200.000 28.194 C 200.000 28.355,200.198 28.488,200.441 28.488 C 200.683 28.488,200.881 28.686,200.881 28.928 C 200.881 29.202,201.158 29.369,201.615 29.369 C 202.072 29.369,202.349 29.535,202.349 29.809 C 202.349 30.051,202.491 30.250,202.664 30.250 C 203.071 30.250,203.818 30.997,203.818 31.403 C 203.818 31.576,204.016 31.718,204.258 31.718 C 204.501 31.718,204.699 31.916,204.699 32.159 C 204.699 32.401,204.841 32.599,205.014 32.599 C 205.420 32.599,206.167 33.346,206.167 33.753 C 206.167 33.926,206.366 34.068,206.608 34.068 C 206.850 34.068,207.048 34.266,207.048 34.508 C 207.048 34.750,207.247 34.949,207.489 34.949 C 207.731 34.949,207.930 35.081,207.930 35.242 C 207.930 35.404,208.260 35.536,208.664 35.536 C 209.121 35.536,209.398 35.702,209.398 35.977 C 209.398 36.219,209.596 36.417,209.838 36.417 C 210.081 36.417,210.279 36.615,210.279 36.858 C 210.279 37.100,210.411 37.298,210.573 37.298 C 210.734 37.298,210.866 37.628,210.866 38.032 C 210.866 38.489,211.033 38.767,211.307 38.767 C 211.549 38.767,211.747 38.965,211.747 39.207 C 211.747 39.449,211.889 39.648,212.062 39.648 C 212.469 39.648,213.216 40.395,213.216 40.801 C 213.216 40.974,213.414 41.116,213.656 41.116 C 213.899 41.116,214.097 41.314,214.097 41.557 C 214.097 41.799,214.295 41.997,214.537 41.997 C 214.812 41.997,214.978 42.274,214.978 42.731 C 214.978 43.135,215.110 43.465,215.272 43.465 C 215.433 43.465,215.565 43.664,215.565 43.906 C 215.565 44.148,215.764 44.347,216.006 44.347 C 216.248 44.347,216.446 44.479,216.446 44.640 C 216.446 44.802,216.645 44.934,216.887 44.934 C 217.129 44.934,217.327 45.132,217.327 45.374 C 217.327 45.617,217.460 45.815,217.621 45.815 C 217.783 45.815,217.915 46.145,217.915 46.549 C 217.915 47.006,218.081 47.283,218.355 47.283 C 218.598 47.283,218.796 47.482,218.796 47.724 C 218.796 47.966,218.994 48.164,219.236 48.164 C 219.511 48.164,219.677 48.442,219.677 48.899 C 219.677 49.302,219.809 49.633,219.971 49.633 C 220.132 49.633,220.264 49.831,220.264 50.073 C 220.264 50.316,220.463 50.514,220.705 50.514 C 220.947 50.514,221.145 50.712,221.145 50.954 C 221.145 51.197,221.344 51.395,221.586 51.395 C 221.860 51.395,222.026 51.672,222.026 52.129 C 222.026 52.533,222.159 52.863,222.320 52.863 C 222.482 52.863,222.614 53.062,222.614 53.304 C 222.614 53.546,222.812 53.744,223.054 53.744 C 223.328 53.744,223.495 54.022,223.495 54.479 L 223.495 55.213 308.811 55.213 L 394.126 55.213 394.126 32.452 L 394.126 9.692 279.883 9.692 L 165.639 9.692 165.639 10.573 M244.640 128.781 C 244.640 132.110,244.711 132.746,245.081 132.746 C 245.466 132.746,245.521 134.456,245.521 146.371 C 245.521 158.211,245.464 160.018,245.081 160.165 C 244.717 160.304,244.640 161.079,244.640 164.602 L 244.640 168.869 319.383 168.869 L 394.126 168.869 394.126 146.843 L 394.126 124.816 319.383 124.816 L 244.640 124.816 244.640 128.781 M223.495 236.564 C 223.495 236.806,223.353 237.004,223.180 237.004 C 222.620 237.004,222.026 237.824,222.026 238.599 C 222.026 239.074,221.863 239.354,221.586 239.354 C 221.344 239.354,221.145 239.486,221.145 239.648 C 221.145 239.809,220.947 239.941,220.705 239.941 C 220.427 239.941,220.264 240.221,220.264 240.696 C 220.264 241.471,219.671 242.291,219.111 242.291 C 218.937 242.291,218.796 242.489,218.796 242.731 C 218.796 242.974,218.598 243.172,218.355 243.172 C 218.081 243.172,217.915 243.449,217.915 243.906 C 217.915 244.310,217.783 244.640,217.621 244.640 C 217.460 244.640,217.327 244.838,217.327 245.081 C 217.327 245.323,217.129 245.521,216.887 245.521 C 216.645 245.521,216.446 245.720,216.446 245.962 C 216.446 246.204,216.305 246.402,216.132 246.402 C 215.571 246.402,214.978 247.222,214.978 247.997 C 214.978 248.472,214.815 248.752,214.537 248.752 C 214.295 248.752,214.097 248.884,214.097 249.046 C 214.097 249.207,213.899 249.339,213.656 249.339 C 213.414 249.339,213.216 249.537,213.216 249.780 C 213.216 250.022,213.084 250.220,212.922 250.220 C 212.761 250.220,212.628 250.419,212.628 250.661 C 212.628 250.903,212.430 251.101,212.188 251.101 C 211.946 251.101,211.747 251.233,211.747 251.395 C 211.747 251.557,211.549 251.689,211.307 251.689 C 211.065 251.689,210.866 251.887,210.866 252.129 C 210.866 252.372,210.734 252.570,210.573 252.570 C 210.411 252.570,210.279 252.768,210.279 253.010 C 210.279 253.253,210.081 253.451,209.838 253.451 C 209.596 253.451,209.398 253.583,209.398 253.744 C 209.398 253.906,209.200 254.038,208.957 254.038 C 208.715 254.038,208.517 254.236,208.517 254.479 C 208.517 254.721,208.385 254.919,208.223 254.919 C 208.062 254.919,207.930 255.117,207.930 255.360 C 207.930 255.602,207.731 255.800,207.489 255.800 C 207.247 255.800,207.048 255.932,207.048 256.094 C 207.048 256.256,206.850 256.388,206.608 256.388 C 206.366 256.388,206.167 256.586,206.167 256.828 C 206.167 257.070,206.035 257.269,205.874 257.269 C 205.712 257.269,205.580 257.467,205.580 257.709 C 205.580 257.952,205.382 258.150,205.140 258.150 C 204.897 258.150,204.699 258.282,204.699 258.443 C 204.699 258.605,204.501 258.737,204.258 258.737 C 204.016 258.737,203.818 258.935,203.818 259.178 C 203.818 259.420,203.686 259.618,203.524 259.618 C 203.363 259.618,203.231 259.816,203.231 260.059 C 203.231 260.301,203.032 260.499,202.790 260.499 C 202.548 260.499,202.349 260.631,202.349 260.793 C 202.349 260.954,202.151 261.087,201.909 261.087 C 201.667 261.087,201.468 261.285,201.468 261.527 C 201.468 261.801,201.191 261.968,200.734 261.968 C 200.277 261.968,200.000 262.134,200.000 262.408 C 200.000 262.651,199.858 262.849,199.685 262.849 C 199.512 262.849,199.182 263.038,198.951 263.268 C 198.720 263.499,198.532 263.829,198.532 264.003 C 198.532 264.176,198.333 264.317,198.091 264.317 C 197.849 264.317,197.651 264.515,197.651 264.758 C 197.651 265.032,197.373 265.198,196.916 265.198 C 196.512 265.198,196.182 265.330,196.182 265.492 C 196.182 265.653,195.984 265.786,195.742 265.786 C 195.499 265.786,195.301 265.984,195.301 266.226 C 195.301 266.500,195.024 266.667,194.567 266.667 C 194.110 266.667,193.833 266.833,193.833 267.107 C 193.833 267.349,193.634 267.548,193.392 267.548 C 193.150 267.548,192.952 267.680,192.952 267.841 C 192.952 268.003,192.621 268.135,192.217 268.135 C 191.760 268.135,191.483 268.302,191.483 268.576 C 191.483 268.869,191.189 269.016,190.602 269.016 C 190.117 269.016,189.721 269.158,189.721 269.331 C 189.721 269.891,188.901 270.485,188.127 270.485 C 187.651 270.485,187.372 270.648,187.372 270.925 C 187.372 271.243,187.045 271.366,186.197 271.366 C 185.348 271.366,185.022 271.488,185.022 271.806 C 185.022 272.080,184.745 272.247,184.288 272.247 C 183.884 272.247,183.554 272.379,183.554 272.540 C 183.554 272.702,183.223 272.834,182.819 272.834 C 182.363 272.834,182.085 273.000,182.085 273.275 C 182.085 273.568,181.791 273.715,181.204 273.715 C 180.617 273.715,180.323 273.862,180.323 274.156 C 180.323 274.430,180.046 274.596,179.589 274.596 C 179.185 274.596,178.855 274.728,178.855 274.890 C 178.855 275.051,178.326 275.184,177.680 275.184 C 176.831 275.184,176.505 275.306,176.505 275.624 C 176.505 275.942,176.179 276.065,175.330 276.065 C 174.482 276.065,174.156 276.187,174.156 276.505 C 174.156 276.823,173.829 276.946,172.981 276.946 C 172.335 276.946,171.806 277.078,171.806 277.239 C 171.806 277.401,171.278 277.533,170.631 277.533 C 169.783 277.533,169.457 277.655,169.457 277.974 C 169.457 278.292,169.130 278.414,168.282 278.414 C 167.434 278.414,167.107 278.536,167.107 278.855 C 167.107 279.193,166.732 279.295,165.492 279.295 C 164.604 279.295,163.877 279.427,163.877 279.589 C 163.877 279.750,163.216 279.883,162.408 279.883 C 160.972 279.883,160.940 279.902,160.940 280.764 L 160.940 281.645 277.533 281.645 L 394.126 281.645 394.126 258.884 L 394.126 236.123 308.811 236.123 C 233.170 236.123,223.495 236.173,223.495 236.564 " stroke="none" fill="#dc6c6c" fill-rule="evenodd"></path><path id="path2" d="" stroke="none" fill="#ecd8100" fill-rule="evenodd"></path><path id="path3" d="" stroke="none" fill="#ecd8100" fill-rule="evenodd"></path><path id="path4" d="" stroke="none" fill="#ecd8100" fill-rule="evenodd"></path></g></svg>